PathFileType	4	(X/Y/Z)	/Users/visionmauri/Downloads/Videos/OAW12-top_Sports2D/OAW12-top_Sports2D_m_person00.trc
DataRate	CameraRate	NumFrames	NumMarkers	Units	OrigDataRate	OrigDataStartFrame	OrigNumFrames
25.0	25.0	7	22	m	25.0	1080	1729
Frame#	Time	Hip			RHip			RKnee			RAnkle			RBigToe			RSmallToe			RHeel			LHip			LKnee			LAnkle			LBigToe			LSmallToe			LHeel			Neck			Head			Nose			RShoulder			RElbow			RWrist			LShoulder			LElbow			LWrist			
		X1	Y1	Z1	X2	Y2	Z2	X3	Y3	Z3	X4	Y4	Z4	X5	Y5	Z5	X6	Y6	Z6	X7	Y7	Z7	X8	Y8	Z8	X9	Y9	Z9	X10	Y10	Z10	X11	Y11	Z11	X12	Y12	Z12	X13	Y13	Z13	X14	Y14	Z14	X15	Y15	Z15	X16	Y16	Z16	X17	Y17	Z17	X18	Y18	Z18	X19	Y19	Z19	X20	Y20	Z20	X21	Y21	Z21	X22	Y22	Z22
1080	43.225	3.7885031283392747	-0.12777510006220652	0.0301	3.751275381963158	-0.24010290574287377	0.0301	4.147199100015641	-0.4044513836963968	0.129	4.345765219664297	-0.4377096160741111	0.023	4.511530016889015	-0.5079604404139584	0.2179	4.4438212952266305	-0.5281808246213554	0.1804	4.361314442459801	-0.42354217280529444	-0.0119	3.843722161080348	-0.02684115905366961	0.0301	4.235539044807584	-0.2356887602312527	0.129	4.579019722418694	-0.4151368026605878	0.023	4.714566283414185	-0.4882001793544488	0.2179	4.723720383285835	-0.4244725907631919	0.1804	4.619821209478047	-0.4543071378284268	-0.0119	3.166774601374637	0.16547743602190645	0.0008	2.8772415390190322	0.2697875204831058	0.0655	3.097407577609275	0.1819039639493446	0.1076	3.17094086216566	-0.061320352372777345	-0.01275	3.4670789706757135	-0.27652842637541747	0.0702	3.7220103359779904	-0.4379360674204527	0.1076	3.3289412782510333	0.32965269997492674	-0.01275	3.6991611915855835	0.2648467075175725	0.0702	3.9865702932235245	0.18470326469421408	0.1076
1081	43.265023148148146	3.79252433547178	-0.12951891503305468	0.0301	3.751022624467321	-0.24587757416244577	0.0301	4.166569502822102	-0.41978180086925365	0.129	4.380881551347989	-0.46856344020609	0.023	4.549800105652545	-0.5551586769929034	0.2179	4.485158714979153	-0.5826803425560836	0.1804	4.401478998464743	-0.4603848417057351	-0.0119	3.8450705326413894	-0.026083210785330775	0.0301	4.252817325446746	-0.2397705487295254	0.129	4.577091151994825	-0.4141997549650301	0.023	4.7115479111718575	-0.4903784816656536	0.2179	4.7221178351475945	-0.42644893976109294	0.1804	4.613584436490124	-0.4509027575086768	-0.0119	3.174975891868844	0.16532246531725725	0.0008	2.8701179824398295	0.270306819976566	0.0655	3.107379984701229	0.17278257884199894	0.1076	3.174846868762606	-0.0635971139551635	-0.01275	3.472990179964032	-0.27836822278068213	0.0702	3.730219044948396	-0.43735204544833145	0.1076	3.3377546541833736	0.33362704167917134	-0.01275	3.708552511496868	0.2689954236621255	0.0702	4.000819733460464	0.18577001625581144	0.1076
1082	43.3050462962963	3.7974816329116994	-0.13228511274428684	0.0301	3.748640871846519	-0.2500482099424334	0.0301	4.177243587019288	-0.4315095668146153	0.129	4.434276433933557	-0.5095831108144292	0.023	4.597264203942593	-0.5922493451984328	0.2179	4.538896279243735	-0.6268465804647443	0.1804	4.466726091017663	-0.5094845017847022	-0.0119	3.8440101794179835	-0.023525997333393393	0.0301	4.263729798475593	-0.24267651512410973	0.129	4.57878319396001	-0.41632335053807834	0.023	4.711016408568333	-0.492965217956868	0.2179	4.722082019104056	-0.4268430576287591	0.1804	4.613284067433995	-0.4489569450416571	-0.0119	3.1848703513780263	0.16198066189910457	0.0008	2.862138850163547	0.26569089664958473	0.0655	3.113857242210149	0.16493984552792243	0.1076	3.1807320395102563	-0.06922002051375406	-0.01275	3.4818643733561236	-0.2823611359489207	0.0702	3.736467291029005	-0.43902627603027	0.1076	3.3458108787966276	0.3339071097032539	-0.01275	3.7177095291347655	0.2699111014111829	0.0702	4.0152573209599325	0.18508442018080323	0.1076
1083	43.34506944444444	3.8120741800445788	-0.13884471847542745	0.0301	3.758038753450754	-0.2542730894417272	0.0301	4.191587994724472	-0.4426637512416828	0.129	4.498973416133417	-0.5596844313550398	0.023	4.654120583171595	-0.6270382790157755	0.2179	4.601775546354192	-0.6692101496144364	0.1804	4.5409548183595305	-0.5659378108626096	-0.0119	3.855196180859841	-0.025626677903420932	0.0301	4.274469386465875	-0.24881256024923318	0.129	4.578796356644675	-0.4202115246407699	0.023	4.71717137882455	-0.49571059440242343	0.2179	4.722799565330639	-0.4245811718465619	0.1804	4.611953268935717	-0.4493879670948869	-0.0119	3.197963053137729	0.15486590659191335	0.0008	2.8660615772889844	0.25710982354668654	0.0655	3.1262996296373187	0.15612679221206477	0.1076	3.1890764669554743	-0.07814047745448476	-0.01275	3.489797446017953	-0.2859446172773519	0.0702	3.7416369275121952	-0.4431218924408212	0.1076	3.355424073486798	0.3304774142462115	-0.01275	3.728852716402116	0.2671651502425926	0.0702	4.03076161263176	0.17847730712812274	0.1076
1084	43.38509259259259	3.8299240747054895	-0.14693562070941835	0.0301	3.776298798696696	-0.26176680291357696	0.0301	4.2187332535342845	-0.4583074153895871	0.129	4.5634532384502755	-0.6101797415621913	0.023	4.718218650158737	-0.6678101208136521	0.2179	4.669701415333511	-0.7164017241957474	0.1804	4.609669543536788	-0.620282212243814	-0.0119	3.876411119457795	-0.03307460137239284	0.0301	4.29255836246997	-0.2615084965773317	0.129	4.574040448810642	-0.42323328669481836	0.023	4.72702162224009	-0.49582220161215584	0.2179	4.721332271575684	-0.421671688671155	0.1804	4.604267376930785	-0.452006796591526	-0.0119	3.207555918607467	0.14755495788221637	0.0008	2.873932864634199	0.24901840744994688	0.0655	3.1381993868108586	0.14511665129685486	0.1076	3.1953180058977555	-0.08541887297349171	-0.01275	3.495816349724139	-0.28871953909878495	0.0702	3.750049520875744	-0.44791576520225257	0.1076	3.3660432696421547	0.32642161240924344	-0.01275	3.742240716280378	0.2622711730111472	0.0702	4.048302014523005	0.16729437198779581	0.1076
1085	43.42511574074074	3.842173936284429	-0.1552223628293825	0.0301	3.7927417042931797	-0.2737851959308493	0.0301	4.25082033025195	-0.47498961766972503	0.129	4.617231472514267	-0.6478990958422551	0.023	4.776463575675866	-0.7072910081719537	0.2179	4.7292490536552725	-0.7577476199322329	0.1804	4.666828243478967	-0.6608901443018345	-0.0119	3.8940894130065997	-0.042484864286461595	0.0301	4.312216024669587	-0.2746540992006072	0.129	4.569653269568449	-0.42451973092874234	0.023	4.7335193804719236	-0.4939473372914107	0.2179	4.72234232915501	-0.4218015424601849	0.1804	4.596654046971126	-0.45529921520311534	-0.0119	3.2094254596397285	0.14201023723715908	0.0008	2.8731059579760285	0.24455218571535367	0.0655	3.136450018011967	0.13924701649472437	0.1076	3.1992008704888812	-0.08912597035132586	-0.01275	3.5037429973346303	-0.29408190531426975	0.0702	3.7614549743910652	-0.45284911529072164	0.1076	3.375003609736818	0.32184947628210503	-0.01275	3.757389403279475	0.2561646852562816	0.0702	4.066738208212949	0.1551566557658156	0.1076
1086	43.46513888888889	3.8556159495401516	-0.16676712105108218	0.0301	3.8100397819646648	-0.28856557602511146	0.0301	4.276995577247391	-0.4883776200715295	0.129	4.66184261519773	-0.6690018747194081	0.023	4.819634362118379	-0.7349213683334751	0.2179	4.773834548952035	-0.785496753476469	0.1804	4.715485874628546	-0.6834591997877749	-0.0119	3.9098197784489495	-0.05325027921257939	0.0301	4.322329905296189	-0.2805860881853614	0.129	4.571496999105888	-0.42545156694290764	0.023	4.73459223004575	-0.4933337919995062	0.2179	4.730380638258008	-0.4246279315209066	0.1804	4.59666867914876	-0.4564683942400881	-0.0119	3.2121584069158	0.13514280901289172	0.0008	2.87193729728728	0.2413430452390121	0.0655	3.1280919691062663	0.14191845140099676	0.1076	3.2065113851356477	-0.09458677615188728	-0.01275	3.517385345846357	-0.3046459957428377	0.0702	3.773409057622334	-0.4620969230503477	0.1076	3.383761185898239	0.3145773049047775	-0.01275	3.773115041686455	0.24759262492307954	0.0702	4.082436264669305	0.1422149294563418	0.1076
